<?xml version="1.0" standalone="no"?>
<!DOCTYPE svg PUBLIC "-//W3C//DTD SVG 20010904//EN"
 "http://www.w3.org/TR/2001/REC-SVG-20010904/DTD/svg10.dtd">
<svg version="1.0" xmlns="http://www.w3.org/2000/svg"
 width="1242.000000pt" height="1242.000000pt" viewBox="0 0 1242.000000 1242.000000"
 preserveAspectRatio="xMidYMid meet">
<metadata>
Created by potrace 1.11, written by Peter Selinger 2001-2013
</metadata>
<g transform="translate(0.000000,1242.000000) scale(0.100000,-0.100000)"
fill="#000000" stroke="none">
<path d="M5908 12415 c-2 -2 -55 -6 -118 -9 -63 -4 -122 -9 -130 -11 -8 -2
-51 -7 -94 -10 -43 -4 -86 -8 -95 -10 -9 -1 -43 -6 -76 -9 -83 -10 -127 -16
-145 -21 -8 -2 -35 -7 -60 -10 -25 -4 -90 -15 -145 -26 -55 -11 -113 -23 -130
-25 -142 -25 -712 -189 -830 -239 -16 -7 -79 -32 -140 -55 -121 -47 -323 -132
-364 -154 -14 -8 -89 -45 -166 -83 -210 -104 -385 -205 -607 -349 -106 -70
-318 -218 -361 -254 -7 -6 -48 -38 -92 -72 -44 -35 -82 -65 -85 -68 -3 -3 -32
-27 -65 -55 -262 -218 -595 -556 -805 -818 -8 -10 -23 -28 -33 -40 -140 -165
-419 -576 -557 -820 -161 -286 -335 -661 -422 -907 -96 -273 -176 -534 -213
-700 -2 -8 -15 -64 -28 -125 -30 -130 -45 -205 -52 -260 -4 -22 -8 -47 -10
-55 -2 -8 -7 -37 -10 -65 -4 -27 -8 -57 -10 -65 -2 -8 -7 -39 -10 -69 -4 -30
-8 -62 -10 -71 -2 -9 -7 -53 -11 -96 -3 -43 -8 -92 -10 -109 -26 -262 -26
-858 1 -1095 2 -19 6 -64 10 -100 15 -162 62 -462 90 -588 8 -34 17 -77 20
-95 20 -118 179 -672 215 -752 5 -11 27 -67 48 -125 207 -558 533 -1133 926
-1635 81 -102 78 -99 218 -260 140 -161 355 -376 554 -556 65 -58 264 -220
349 -284 44 -33 82 -62 85 -65 6 -6 70 -51 175 -121 44 -30 82 -57 83 -61 2
-5 8 -8 13 -8 6 0 36 -17 67 -38 183 -124 573 -333 822 -442 172 -75 532 -212
590 -225 8 -2 15 -4 15 -5 0 -1 7 -3 15 -5 8 -2 67 -20 130 -39 161 -48 445
-119 570 -141 152 -27 325 -55 375 -60 33 -4 67 -8 75 -10 26 -7 164 -19 355
-32 144 -10 673 -9 800 0 129 10 278 25 330 32 44 7 94 13 150 20 28 3 61 8
75 11 14 3 36 7 50 9 35 5 241 44 315 60 11 3 29 7 40 9 272 55 835 239 1101
361 33 15 75 34 94 42 116 51 396 194 507 259 17 11 74 44 125 74 176 103 590
391 695 484 17 15 34 30 106 89 214 177 559 519 703 697 16 19 36 42 44 50 16
16 191 236 225 284 11 16 25 33 30 40 48 56 355 525 355 542 0 3 8 18 18 32
79 114 287 544 395 817 89 224 220 627 241 737 2 13 11 50 20 83 18 69 62 273
71 325 3 19 7 46 10 60 3 14 7 41 10 60 3 19 7 46 10 60 2 14 7 45 10 70 4 25
8 56 10 70 10 66 18 136 31 275 26 287 25 893 -1 1110 -2 17 -7 55 -10 85 -22
208 -54 415 -99 630 -3 14 -10 48 -16 75 -17 85 -70 284 -110 420 -149 498
-370 997 -635 1435 -67 111 -257 401 -277 421 -7 8 -29 37 -48 64 -19 28 -42
59 -51 70 -10 11 -54 66 -99 123 -296 375 -701 768 -1090 1061 -52 39 -100 75
-106 80 -6 5 -73 51 -150 103 -293 200 -636 393 -929 522 -33 15 -67 31 -75
35 -42 23 -333 135 -470 181 -85 29 -162 55 -170 58 -8 3 -17 6 -20 7 -3 0
-32 9 -65 19 -126 38 -469 123 -570 140 -16 3 -55 10 -85 16 -30 5 -68 12 -85
15 -32 6 -216 32 -275 40 -79 9 -241 26 -315 31 -62 5 -733 13 -737 9z"/>
</g>
</svg>
